<svg width="150" height="150" viewBox="0 0 150 150" fill="none" xmlns="http://www.w3.org/2000/svg">
<path d="M107.792 25.5H42.2083C37.7881 25.5 33.5488 27.2559 30.4232 30.3816C27.2976 33.5072 25.5417 37.7464 25.5417 42.1667V92.1667C25.534 94.3575 25.9598 96.5283 26.7946 98.5538C27.6295 100.579 28.8569 102.42 30.406 103.969C31.9552 105.518 33.7956 106.746 35.8212 107.58C37.8467 108.415 40.0175 108.841 42.2083 108.833H107.792C112.212 108.833 116.451 107.077 119.577 103.952C122.702 100.826 124.458 96.5869 124.458 92.1667V42.1667C124.445 37.7505 122.685 33.5189 119.562 30.3961C116.439 27.2734 112.208 25.5132 107.792 25.5ZM116.125 92.1667C116.125 94.3768 115.247 96.4964 113.684 98.0592C112.121 99.622 110.002 100.5 107.792 100.5H42.2083C41.1109 100.511 40.0223 100.303 39.0062 99.8884C37.9901 99.4735 37.067 98.8601 36.2909 98.0841C35.5149 97.308 34.9015 96.3849 34.4866 95.3688C34.0718 94.3528 33.8639 93.2641 33.875 92.1667V42.1667C33.875 39.9565 34.753 37.8369 36.3158 36.2741C37.8786 34.7113 39.9982 33.8333 42.2083 33.8333H107.792C110.002 33.8333 112.121 34.7113 113.684 36.2741C115.247 37.8369 116.125 39.9565 116.125 42.1667V92.1667Z" fill="white"/>
<path d="M128.625 0.5H21.375C15.8544 0.515393 10.5643 2.71527 6.66063 6.61895C2.75696 10.5226 0.55708 15.8127 0.541687 21.3333V113C0.541687 118.525 2.73662 123.824 6.64363 127.731C10.5506 131.638 15.8497 133.833 21.375 133.833V137C21.375 140.315 22.692 143.495 25.0362 145.839C27.3804 148.183 30.5598 149.5 33.875 149.5H45.7917C49.1069 149.5 52.2863 148.183 54.6305 145.839C56.9747 143.495 58.2917 140.315 58.2917 137V133.833H91.625V137C91.625 140.315 92.942 143.495 95.2862 145.839C97.6304 148.183 100.81 149.5 104.125 149.5H116.125C119.44 149.5 122.62 148.183 124.964 145.839C127.308 143.495 128.625 140.315 128.625 137V133.833C134.15 133.833 139.449 131.638 143.356 127.731C147.263 123.824 149.458 118.525 149.458 113V21.3333C149.443 15.8127 147.243 10.5226 143.339 6.61895C139.436 2.71527 134.146 0.515393 128.625 0.5ZM49.9584 137C49.9584 138.105 49.5194 139.165 48.738 139.946C47.9566 140.728 46.8968 141.167 45.7917 141.167H33.875C32.77 141.167 31.7101 140.728 30.9287 139.946C30.1473 139.165 29.7084 138.105 29.7084 137V133.833H49.9584V137ZM120.292 137C120.292 138.105 119.853 139.165 119.071 139.946C118.29 140.728 117.23 141.167 116.125 141.167H104.167C103.067 141.149 102.017 140.705 101.239 139.927C100.462 139.15 100.017 138.1 100 137V133.833H120.333L120.292 137ZM141.125 113C141.125 116.315 139.808 119.495 137.464 121.839C135.12 124.183 131.94 125.5 128.625 125.5H21.375C18.0598 125.5 14.8804 124.183 12.5362 121.839C10.192 119.495 8.87502 116.315 8.87502 113V21.3333C8.87502 18.0181 10.192 14.8387 12.5362 12.4945C14.8804 10.1503 18.0598 8.83333 21.375 8.83333H128.625C131.94 8.83333 135.12 10.1503 137.464 12.4945C139.808 14.8387 141.125 18.0181 141.125 21.3333V113Z" fill="white"/>
<path d="M93.875 63H88.7917C88.1624 60.6928 86.9444 58.5888 85.2571 56.8942C83.5698 55.1996 81.4711 53.9725 79.1667 53.3333V48.25C79.1426 47.1677 78.6906 46.139 77.9096 45.3893C77.1287 44.6395 76.0824 44.2299 75 44.25C73.9232 44.2491 72.8879 44.6651 72.1111 45.4109C71.3343 46.1566 70.8764 47.174 70.8334 48.25V53.3333C68.5213 53.9662 66.4139 55.1905 64.7189 56.8855C63.0239 58.5806 61.7996 60.6879 61.1667 63H56.0833C55.0074 63.043 53.9899 63.501 53.2442 64.2778C52.4985 65.0545 52.0825 66.0899 52.0833 67.1666C52.0632 68.249 52.4729 69.2953 53.2226 70.0763C53.9724 70.8572 55.001 71.3092 56.0833 71.3333H61.1667C61.7996 73.6454 63.0239 75.7527 64.7189 77.4478C66.4139 79.1428 68.5213 80.3671 70.8334 81V86.1666C70.8746 87.2358 71.3347 88.2458 72.1143 88.9786C72.8939 89.7114 73.9304 90.1082 75 90.0833C75.5314 90.1022 76.0612 90.0156 76.559 89.8286C77.0567 89.6415 77.5124 89.3577 77.8998 88.9936C78.2873 88.6294 78.5987 88.1921 78.8161 87.7069C79.0336 87.2216 79.1527 86.6982 79.1667 86.1666V81C81.4918 80.3934 83.6131 79.1779 85.3122 77.4788C87.0113 75.7797 88.2268 73.6584 88.8334 71.3333H93.9167C94.4546 71.328 94.9861 71.2154 95.4799 71.002C95.9737 70.7887 96.42 70.4789 96.7926 70.0908C97.1651 69.7027 97.4564 69.2442 97.6495 68.7421C97.8425 68.2399 97.9333 67.7043 97.9167 67.1666C97.9266 66.6272 97.8298 66.0912 97.6317 65.5893C97.4337 65.0875 97.1383 64.6297 96.7627 64.2425C96.387 63.8552 95.9385 63.5461 95.4429 63.3328C94.9474 63.1196 94.4145 63.0065 93.875 63ZM75 73.4166C73.7639 73.4166 72.5555 73.0501 71.5277 72.3633C70.4999 71.6766 69.6988 70.7004 69.2258 69.5584C68.7527 68.4164 68.629 67.1597 68.8701 65.9473C69.1113 64.7349 69.7065 63.6213 70.5806 62.7472C71.4547 61.8731 72.5683 61.2779 73.7807 61.0367C74.9931 60.7956 76.2497 60.9193 77.3918 61.3924C78.5338 61.8654 79.5099 62.6665 80.1967 63.6943C80.8835 64.7221 81.25 65.9305 81.25 67.1666C81.2511 67.9877 81.0902 68.8009 80.7765 69.5597C80.4628 70.3185 80.0025 71.0079 79.4219 71.5885C78.8413 72.1691 78.1519 72.6294 77.3931 72.9431C76.6343 73.2568 75.8211 73.4177 75 73.4166Z" fill="white"/>
</svg>
